# xmcd
#
# Track frame offsets: 
#        182
#        16125
#        28272
#        41797
#        60547
#        74957
#        91107
#        101482
#        115497
#        130617
#        149107
#        158797
#
# Disc length: 2343 seconds
#
# Revision: 3
# Processed by: cddbd v1.5.2PL0 Copyright (c) Steve Scherf et al.
# Submitted via: ExactAudioCopy v0.99pb5
#
DISCID=ad09250c
DTITLE=Sumo - After Chabon
DYEAR=1987
DGENRE=Rock
TTITLE0=Crua-chan
TTITLE1=No tan distinto (1989)
TTITLE2=Banderitas y globos
TTITLE3=Manana en el abasto
TTITLE4=Hola Frank
TTITLE5=Ojos de terciopelo
TTITLE6=Lo quiero ya
TTITLE7=La gota en el ojo
TTITLE8=El cieguito volador
TTITLE9=No te pongas azul
TTITLE10=Noche de paz
TTITLE11=Percusion baby
EXTD=
EXTT0=
EXTT1=
EXTT2=
EXTT3=
EXTT4=
EXTT5=
EXTT6=
EXTT7=
EXTT8=
EXTT9=
EXTT10=
EXTT11=
PLAYORDER=
